HIERARCHY
ROOT hip
{
	OFFSET	0.00  0.00  0.00 
	CHANNELS 6 Xposition Yposition Zposition Xrotation Zrotation Yrotation
	JOINT waist
	{
		OFFSET	0.000000 2.191865 -0.079388
		CHANNELS 3 Xrotation Zrotation Yrotation
		JOINT abdomen
		{
			OFFSET	0.000000 2.770984 0.119082
			CHANNELS 3 Xrotation Zrotation Yrotation
			JOINT chest
			{
				OFFSET	0.000000 2.879627 -0.290598
				CHANNELS 3 Xrotation Zrotation Yrotation
				JOINT neck
				{
					OFFSET	0.000000 12.342733 -1.613748
					CHANNELS 3 Xrotation Zrotation Yrotation
					JOINT head
					{
						OFFSET	0.000000 4.485597 1.807195
						CHANNELS 3 Xrotation Zrotation Yrotation
						End Site
						{
							OFFSET 0.000000 7.191734 2.024398
						}
					}
				}
				JOINT lCollar
				{
					OFFSET	1.858774 10.237258 -1.915852
					CHANNELS 3 Zrotation Yrotation Xrotation
					JOINT lShldr
					{
						OFFSET	6.103279 0.000102 -0.038601
						CHANNELS 3 Zrotation Yrotation Xrotation
						JOINT lForeArm
						{
							OFFSET	10.574100 -0.365985 -0.655940
							CHANNELS 3 Zrotation Yrotation Xrotation
							JOINT lHand
							{
								OFFSET	13.213392 -0.641131 0.276866
								CHANNELS 3 Zrotation Yrotation Xrotation
								JOINT lThumb1
								{
									OFFSET	1.920964 -1.225712 1.722395
									CHANNELS 3 Zrotation Yrotation Xrotation
									JOINT lThumb2
									{
										OFFSET	0.248544 -0.143036 0.768265
										CHANNELS 3 Zrotation Yrotation Xrotation
										JOINT lThumb3
										{
											OFFSET	0.628484 -0.225174 0.508305
											CHANNELS 3 Zrotation Yrotation Xrotation
											End Site
											{
												OFFSET 0.831712 -0.207978 0.609962
											}
										}
									}
								}
								JOINT lIndex1
								{
									OFFSET	5.093442 -0.710319 1.829884
									CHANNELS 3 Zrotation Yrotation Xrotation
									JOINT lIndex2
									{
										OFFSET	0.889470 -0.051998 0.127073
										CHANNELS 3 Zrotation Yrotation Xrotation
										JOINT lIndex3
										{
											OFFSET	0.889570 -0.155981 0.127073
											CHANNELS 3 Zrotation Yrotation Xrotation
											End Site
											{
												OFFSET 0.797115 -0.294470 0.076252
											}
										}
									}
								}
								JOINT lMid1
								{
									OFFSET	5.154641 -0.519844 0.864111
									CHANNELS 3 Zrotation Yrotation Xrotation
									JOINT lMid2
									{
										OFFSET	0.928821 -0.051992 0.050831
										CHANNELS 3 Zrotation Yrotation Xrotation
										JOINT lMid3
										{
											OFFSET	0.984253 -0.311865 0.050831
											CHANNELS 3 Zrotation Yrotation Xrotation
											End Site
											{
												OFFSET 0.779717 -0.606438 -0.050831
											}
										}
									}
								}
								JOINT lRing1
								{
									OFFSET	4.924408 -0.754930 -0.235503
									CHANNELS 3 Zrotation Yrotation Xrotation
									JOINT lRing2
									{
										OFFSET	0.981624 -0.036924 -0.108278
										CHANNELS 3 Zrotation Yrotation Xrotation
										JOINT lRing3
										{
											OFFSET	0.805613 -0.205247 -0.041717
											CHANNELS 3 Zrotation Yrotation Xrotation
											End Site
											{
												OFFSET 0.667431 -0.470481 -0.035991
											}
										}
									}
								}
								JOINT lPinky1
								{
									OFFSET	4.535460 -0.816635 -1.006206
									CHANNELS 3 Zrotation Yrotation Xrotation
									JOINT lPinky2
									{
										OFFSET	0.690596 -0.064334 -0.168800
										CHANNELS 3 Zrotation Yrotation Xrotation
										JOINT lPinky3
										{
											OFFSET	0.598039 -0.111176 -0.071973
											CHANNELS 3 Zrotation Yrotation Xrotation
											End Site
											{
												OFFSET 0.422025 -0.290925 -0.035981
											}
										}
									}
								}
							}
						}
					}
				}
				JOINT rCollar
				{
					OFFSET	-1.858774 10.237258 -1.915852
					CHANNELS 3 Zrotation Yrotation Xrotation
					JOINT rShldr
					{
						OFFSET	-6.103279 0.000102 -0.038601
						CHANNELS 3 Zrotation Yrotation Xrotation
						JOINT rForeArm
						{
							OFFSET	-10.574100 -0.365985 -0.655940
							CHANNELS 3 Zrotation Yrotation Xrotation
							JOINT rHand
							{
								OFFSET	-13.213392 -0.641131 0.276866
								CHANNELS 3 Zrotation Yrotation Xrotation
								JOINT rIndex1
								{
									OFFSET	-5.093442 -0.710319 1.829884
									CHANNELS 3 Zrotation Yrotation Xrotation
									JOINT rIndex2
									{
										OFFSET	-0.889470 -0.051998 0.127073
										CHANNELS 3 Zrotation Yrotation Xrotation
										JOINT rIndex3
										{
											OFFSET	-0.889570 -0.155981 0.127073
											CHANNELS 3 Zrotation Yrotation Xrotation
											End Site
											{
												OFFSET -0.797115 -0.294470 0.076252
											}
										}
									}
								}
								JOINT rThumb1
								{
									OFFSET	-1.920964 -1.225712 1.722395
									CHANNELS 3 Zrotation Yrotation Xrotation
									JOINT rThumb2
									{
										OFFSET	-0.248544 -0.143036 0.768265
										CHANNELS 3 Zrotation Yrotation Xrotation
										JOINT rThumb3
										{
											OFFSET	-0.628484 -0.225174 0.508305
											CHANNELS 3 Zrotation Yrotation Xrotation
											End Site
											{
												OFFSET -0.831712 -0.207978 0.609962
											}
										}
									}
								}
								JOINT rMid1
								{
									OFFSET	-5.154641 -0.519844 0.864111
									CHANNELS 3 Zrotation Yrotation Xrotation
									JOINT rMid2
									{
										OFFSET	-0.928821 -0.051992 0.050831
										CHANNELS 3 Zrotation Yrotation Xrotation
										JOINT rMid3
										{
											OFFSET	-0.984253 -0.311865 0.050831
											CHANNELS 3 Zrotation Yrotation Xrotation
											End Site
											{
												OFFSET -0.779717 -0.606438 -0.050831
											}
										}
									}
								}
								JOINT rRing1
								{
									OFFSET	-4.924408 -0.754930 -0.235503
									CHANNELS 3 Zrotation Yrotation Xrotation
									JOINT rRing2
									{
										OFFSET	-0.981624 -0.036924 -0.108278
										CHANNELS 3 Zrotation Yrotation Xrotation
										JOINT rRing3
										{
											OFFSET	-0.805613 -0.205247 -0.041717
											CHANNELS 3 Zrotation Yrotation Xrotation
											End Site
											{
												OFFSET -0.667431 -0.470481 -0.035991
											}
										}
									}
								}
								JOINT rPinky1
								{
									OFFSET	-4.535460 -0.816635 -1.006206
									CHANNELS 3 Zrotation Yrotation Xrotation
									JOINT rPinky2
									{
										OFFSET	-0.690596 -0.064334 -0.168800
										CHANNELS 3 Zrotation Yrotation Xrotation
										JOINT rPinky3
										{
											OFFSET	-0.598039 -0.111176 -0.071973
											CHANNELS 3 Zrotation Yrotation Xrotation
											End Site
											{
												OFFSET -0.422025 -0.290925 -0.035981
											}
										}
									}
								}
							}
						}
					}
				}
			}
		}
	}
	JOINT lThigh
	{
		OFFSET	5.761895 -0.730553 0.000101
		CHANNELS 3 Xrotation Zrotation Yrotation
		JOINT lShin
		{
			OFFSET	-1.171020 -18.459274 1.627449
			CHANNELS 3 Xrotation Zrotation Yrotation
			JOINT lFoot
			{
				OFFSET	-0.883715 -16.872776 -3.357785
				CHANNELS 3 Xrotation Zrotation Yrotation
				JOINT lToe
				{
					OFFSET	1.287613 -2.778491 2.836049
					CHANNELS 3 Xrotation Yrotation Zrotation
					End Site
					{
						OFFSET 1.362641 -0.436631 3.828194
					}
				}
			}
		}
	}
	JOINT rThigh
	{
		OFFSET	-5.761895 -0.730553 0.000101
		CHANNELS 3 Xrotation Zrotation Yrotation
		JOINT rShin
		{
			OFFSET	1.171020 -18.459274 1.627449
			CHANNELS 3 Xrotation Zrotation Yrotation
			JOINT rFoot
			{
				OFFSET	0.883715 -16.872776 -3.357785
				CHANNELS 3 Xrotation Zrotation Yrotation
				JOINT rToe
				{
					OFFSET	-1.287613 -2.778491 2.836049
					CHANNELS 3 Xrotation Yrotation Zrotation
					End Site
					{
						OFFSET -1.362641 -0.436631 3.828194
					}
				}
			}
		}
	}
}
MOTION
Frames:     6
Frame Time: 0.033333
0.381362 35.875481 3.501124 2.988669 0.315290 15.720815 0.008003 2.573974 -7.479219 6.039693 3.289967 -8.152645 -4.233841 3.239051 -8.244205 -8.535972 0.185652 2.420415 -8.605453 -2.440552 4.489345 11.737322 -1.830575 2.973135 -61.188942 -49.540169 -10.359282 4.261557 -71.529396 22.756542 42.199188 -2.364755 -1.971169 7.785747 18.592667 27.870321 3.034186 19.885679 6.185328 2.641899 23.316830 5.336477 -67.982689 12.740789 8.426743 -88.901253 7.222038 8.760811 -84.580765 3.730238 5.946512 -69.511429 8.334781 3.390531 -89.881523 2.368623 3.253201 -84.868416 -1.686709 -3.862463 -69.065605 -9.821907 -5.010390 -89.874695 -2.516821 -3.244705 -84.905861 -1.507566 -3.252732 -65.380890 -15.209121 -15.438886 -89.223824 -6.084209 -7.405947 -84.746117 -2.426427 -5.152880 -7.242008 -7.078534 1.401522 75.798897 -27.557499 8.014141 20.956385 96.278397 53.436234 -37.398628 8.688073 -3.111959 -7.960599 5.046452 -1.426094 50.481766 -2.405626 6.467039 29.828653 -0.233112 2.668444 -9.116450 -4.548743 11.055280 -2.911880 -19.239311 5.957760 -1.151706 -12.797103 2.720809 4.265486 3.732371 0.014750 20.083223 -0.032342 0.986875 33.118645 -0.084989 -1.780264 4.079937 -0.797294 -0.374435 17.165277 0.009973 -0.874589 15.550412 -0.136209 -0.710579 22.944044 5.191632 -6.443785 23.609453 0.308363 -2.776650 -2.678938 0.048883 0.184032 10.369838 4.961647 1.975808 25.987579 -0.903635 -5.897814 30.091537 23.978045 -5.112526 -39.382515 -4.940641 12.932820 -41.664795 -8.090631 -8.576609 30.630785 2.349467 4.057802 35.388550 4.833784 -10.208744 -20.436674 -0.253377 -8.422285 
0.381362 35.883202 3.251055 2.998599 0.275242 13.542123 1.146847 2.200250 -6.612998 8.542572 2.961148 -7.984886 -3.153578 2.957679 -7.113979 -8.540825 0.164911 2.081384 -11.447876 -2.240590 3.612118 11.532669 -1.019770 3.049629 -63.648754 -45.631557 -12.279843 5.433156 -74.427177 22.055578 53.397823 -9.065165 -6.356822 7.317905 14.735515 24.501984 2.925348 19.388100 6.007769 2.204570 20.676851 4.633466 -63.878529 9.876441 7.940110 -82.237602 6.291724 8.605145 -78.251045 3.183568 5.760434 -69.749214 6.657883 3.285122 -86.313072 2.193804 3.219582 -80.492989 -1.473181 -3.757694 -69.047516 -8.153859 -4.982133 -89.874695 -2.516821 -3.244705 -86.563492 -1.578659 -3.281117 -65.769142 -12.961945 -14.898583 -86.309486 -5.740804 -7.360359 -82.158577 -2.251956 -5.076292 -7.521084 -6.707173 0.486505 74.766754 -23.353979 6.684688 34.301125 93.801353 66.237015 -36.028358 8.109216 -2.974414 -6.727254 5.073668 -1.253400 49.210552 -2.278587 6.339332 30.217531 -0.245113 2.701720 -9.094197 -4.575143 11.144053 -3.068924 -19.958029 6.214545 -1.192929 -13.149012 2.803157 6.183491 3.726065 0.119531 21.175591 -0.043399 1.040025 33.586735 -0.078602 -1.804958 6.523919 -0.776555 -0.598029 18.335632 0.020908 -0.932929 17.560198 -0.137893 -0.803679 26.190809 5.474101 -7.215971 26.254982 0.414498 -3.072762 0.651830 -0.027717 -0.049200 13.861113 5.578112 1.645777 24.862461 -1.468121 -5.333928 33.033127 20.070307 -2.545854 -39.545570 -4.942890 12.998227 -37.625244 -6.012023 -8.060731 29.992455 2.456833 3.899772 16.449806 0.893424 -9.100695 -11.009033 -1.218780 -5.200464 
0.381362 35.830963 3.251055 3.008842 0.215253 10.855157 2.724885 1.737334 -5.547494 11.687564 2.518005 -7.520106 -1.748541 2.568556 -5.724080 -8.545723 0.127655 1.675268 -14.708866 -2.029362 2.559102 11.249737 -0.140514 3.154899 -66.686035 -40.167622 -14.794348 7.184938 -77.376350 20.865852 52.734844 -6.733516 -6.038548 6.919575 10.131036 20.384377 2.796938 18.788748 5.795963 1.730749 17.481897 3.829761 -58.772217 6.431589 7.320136 -74.090324 5.186862 8.270239 -70.495842 2.546836 5.451395 -69.877174 4.623922 3.160134 -81.887032 1.980388 3.162993 -75.074852 -1.220832 -3.605944 -68.883163 -6.130204 -4.949117 -89.796700 -2.512909 -3.244210 -88.377144 -1.657349 -3.310077 -66.064629 -10.200150 -14.265053 -82.651619 -5.313519 -7.279358 -78.899925 -2.037438 -4.968858 -7.886455 -6.169808 -0.185017 73.484703 -17.905069 5.048624 96.149826 92.018288 127.828995 -34.331062 7.394216 -2.795563 -5.219664 5.101913 -1.042655 47.650188 -2.126593 6.178976 30.684183 -0.259813 2.741544 -9.057731 -4.628870 11.254220 -3.269165 -20.842764 6.534801 -1.243834 -13.576939 2.901287 8.541750 3.703789 0.247750 22.521526 -0.058412 1.105206 34.162090 -0.070475 -1.835235 9.532337 -0.728204 -0.871615 19.788805 0.036139 -1.005037 20.028524 -0.135493 -0.917987 30.176373 5.879960 -8.139865 29.510267 0.563706 -3.430029 4.742639 -0.103049 -0.341091 10.996672 4.865265 0.566203 33.342674 -1.271962 -5.579134 34.157604 -4.012203 3.982103 -24.359680 -1.745291 8.589168 -34.635845 -4.098398 -7.274745 31.239641 2.590696 3.865518 12.855134 -0.802493 -7.350482 -14.976103 -0.684089 -6.427604 
0.381362 35.696648 3.251055 3.017446 0.159886 7.933802 4.869728 1.239221 -4.392725 15.151588 1.977798 -6.745414 -0.023670 1.991650 -4.239671 -8.549889 0.093880 1.225639 -17.516918 -1.846271 1.442493 10.898422 0.777866 3.259718 -70.052284 -33.496227 -17.580086 9.957264 -80.269867 18.701303 50.567894 -3.701357 -5.591012 6.518161 5.679053 16.011436 2.671315 18.188955 5.585416 1.304888 14.233582 3.052186 -53.092415 2.972460 6.623240 -65.420021 4.074934 7.744055 -62.255253 1.922511 5.032338 -69.438591 2.502583 3.024490 -76.886177 1.745311 3.079525 -69.091270 -0.960202 -3.411533 -68.208420 -3.994297 -4.904173 -88.997169 -2.472850 -3.238825 -89.537521 -1.708156 -3.327118 -65.778412 -7.280911 -13.605024 -78.396042 -4.823871 -7.150615 -75.057640 -1.792845 -4.826804 -8.342842 -5.358930 0.188990 72.077133 -11.169998 3.231329 -25.735352 85.690872 5.247363 -32.486034 6.611153 -2.621308 -3.584637 5.126277 -0.813375 45.954670 -1.966480 6.000191 31.199425 -0.276420 2.785418 -9.013544 -4.675951 11.380105 -3.494406 -21.808123 6.891579 -1.301934 -14.052846 3.012034 11.095592 3.674555 0.386488 23.974730 -0.076336 1.175164 34.786201 -0.061316 -1.867985 12.793519 -0.660451 -1.165493 21.349239 0.054526 -1.082009 22.711477 -0.127302 -1.042016 34.509785 6.393151 -9.113012 33.035824 0.747947 -3.806809 9.194207 -0.161132 -0.663911 7.492509 3.646185 0.112814 41.171246 -0.825694 -5.750138 34.654247 -8.455217 8.971691 -13.533995 -0.196942 5.094332 -34.493462 -2.514500 -6.377082 37.821877 2.548776 4.316498 14.158648 -1.834391 -6.070760 -18.920225 -0.059638 -7.612262 
0.381362 35.479202 3.251055 3.023630 0.097939 4.856058 7.132385 0.714833 -3.168108 18.130754 1.379745 -5.713636 1.581466 1.326054 -2.666529 -8.552914 0.058181 0.745176 -19.694828 -1.647167 0.311169 10.517741 1.706027 3.364629 -73.513367 -25.995523 -20.299625 14.819275 -83.029243 14.488617 47.391315 -0.334807 -5.075008 6.194226 1.823610 11.918860 2.559656 17.644152 5.397787 0.961334 11.275222 2.376497 -46.991695 -0.032242 5.876058 -56.769241 3.056806 7.059142 -54.041916 1.366492 4.530070 -67.688255 0.500890 2.875146 -71.300720 1.492472 2.962527 -62.678383 -0.705038 -3.174141 -66.379395 -1.937485 -4.824701 -86.725464 -2.359485 -3.220471 -88.923203 -1.681215 -3.318226 -64.199677 -4.409406 -12.893381 -73.359306 -4.258356 -6.951631 -70.407806 -1.510427 -4.633226 -8.828291 -4.479664 0.582711 70.541084 -3.383574 1.293033 -12.590719 82.085831 17.943296 -30.545116 5.789629 -2.437474 -1.890777 5.154373 -0.574917 44.162441 -1.803099 5.805898 31.714657 -0.293420 2.829097 -8.984142 -4.729539 11.507798 -3.735417 -22.807533 7.269086 -1.362391 -14.546584 3.126582 13.747213 3.647860 0.528260 25.476671 -0.096720 1.246982 35.420063 -0.051649 -1.901142 16.171019 -0.573099 -1.465808 22.968163 0.075810 -1.161320 25.501726 -0.112636 -1.170449 39.005093 7.001770 -10.078795 36.695801 0.963414 -4.185295 13.811656 -0.194717 -1.002447 1.963775 1.955386 0.014690 51.788143 -0.425454 -6.350833 33.726452 -11.785366 14.622992 -2.043367 0.698749 1.220296 -33.676765 -0.943993 -5.300651 43.871067 2.372290 4.779398 16.011171 -2.803156 -4.963217 -22.841518 0.663539 -8.769038 
0.381361 35.177601 3.440349 3.026885 0.027891 1.699995 8.907604 0.191342 -1.923972 19.928301 0.724728 -4.484172 2.723871 0.627448 -1.063833 -8.554481 0.009753 0.259297 -20.666121 -1.376994 -0.819863 10.098077 2.624429 3.439863 -76.830330 -18.024868 -22.610113 25.052542 -85.560387 4.888496 43.657284 3.007750 -4.543024 6.316328 -1.104841 8.889330 2.481517 17.256121 5.264304 0.733018 9.094494 1.894765 -40.554710 -2.056430 5.102480 -48.681858 2.208500 6.287694 -46.408348 0.919075 3.996607 -63.666042 -1.171031 2.694762 -64.955009 1.220612 2.800518 -55.855366 -0.464499 -2.892169 -62.585213 -0.142771 -4.667165 -81.889999 -2.121115 -3.166134 -85.149635 -1.517969 -3.257035 -60.386082 -1.842122 -12.049624 -67.174065 -3.590946 -6.640069 -64.560898 -1.179124 -4.358357 -9.333097 -3.561310 0.985708 68.890747 5.044122 -0.725347 -7.699682 78.233421 22.477768 -28.568171 4.947161 -2.249463 -0.196718 5.165690 -0.336335 42.321636 -1.641728 5.601497 32.220161 -0.310482 2.871801 -8.937573 -4.768700 11.629807 -3.991439 -23.824953 7.660370 -1.426348 -15.050849 3.246619 16.408325 3.604748 0.670328 26.978592 -0.118979 1.318227 36.034409 -0.041930 -1.933167 19.577106 -0.467288 -1.763667 24.577305 0.099178 -1.239514 28.301683 -0.091651 -1.298458 43.532883 7.689630 -11.003774 40.383587 1.204589 -4.552056 18.477934 -0.200859 -1.346176 -2.844369 1.156382 1.309378 60.628361 -0.205344 -6.702080 33.097191 -14.206486 19.005436 1.766311 0.910537 -0.000740 -31.960119 0.755461 -3.356694 48.993000 2.340983 5.229094 17.987337 -3.469991 -4.529831 -26.629196 2.197654 -9.870996 
